<svg xmlns="http://www.w3.org/2000/svg" viewBox="0 0 512 512" width="100%" height="100%">
  <rect width="512" height="512" rx="112" fill="#FAFAF8"/>
  <!-- Stylized Purple Calligraphy Letter "ع" + Gold Arrow -->
  <g transform="translate(16, 16) scale(4.8)">
    <path
      d="M32 72C24 64 24 50 34 40C44 30 52 24 42 14C35 7 28 12 22 18C18 12 28 2 40 2C56 2 66 14 56 25C47 34 42 40 46 48C50 56 60 52 66 46L72 52C62 62 44 78 32 72Z"
      fill="#5A2D82"
    />
    <path
      d="M52 50L82 12"
      stroke="#C79A2D"
      stroke-width="10"
      stroke-linecap="round"
    />
    <path
      d="M66 10L86 8L82 28L75 18L66 10Z"
      fill="#C79A2D"
    />
  </g>
</svg>
